<svg xmlns="http://www.w3.org/2000/svg" viewBox="0 0 512 512">
  <defs>
    <linearGradient id="bg512" x1="0%" y1="0%" x2="100%" y2="100%">
      <stop offset="0%" style="stop-color:#667eea"/>
      <stop offset="100%" style="stop-color:#764ba2"/>
    </linearGradient>
    <linearGradient id="accent512" x1="0%" y1="0%" x2="100%" y2="100%">
      <stop offset="0%" style="stop-color:#f093fb"/>
      <stop offset="100%" style="stop-color:#f5576c"/>
    </linearGradient>
  </defs>
  
  <!-- 배경 -->
  <rect width="512" height="512" rx="100" fill="url(#bg512)"/>
  
  <!-- 장식 원들 -->
  <circle cx="80" cy="80" r="50" fill="rgba(255,255,255,0.1)"/>
  <circle cx="450" cy="420" r="65" fill="rgba(255,255,255,0.08)"/>
  <circle cx="420" cy="100" r="30" fill="rgba(255,255,255,0.06)"/>
  <circle cx="90" cy="400" r="40" fill="rgba(255,255,255,0.05)"/>
  
  <!-- 물음표 박스 -->
  <rect x="120" y="120" width="272" height="272" rx="50" fill="white"/>
  
  <!-- 물음표 -->
  <text x="256" y="340" 
        font-family="Arial, sans-serif" 
        font-size="180" 
        font-weight="bold" 
        fill="url(#bg512)" 
        text-anchor="middle">?</text>
  
  <!-- 스타 장식들 -->
  <polygon points="430,90 436,108 454,108 440,120 446,138 430,126 414,138 420,120 406,108 424,108" 
           fill="url(#accent512)"/>
  <polygon points="100,400 104,412 116,412 106,420 110,432 100,424 90,432 94,420 84,412 96,412" 
           fill="#ffd93d"/>
  <polygon points="440,380 443,388 451,388 445,393 447,401 440,396 433,401 435,393 429,388 437,388" 
           fill="#00d26a"/>
  <polygon points="75,120 77,126 83,126 78,130 80,136 75,132 70,136 72,130 67,126 73,126" 
           fill="rgba(255,255,255,0.8)"/>
</svg>
