<svg xmlns="http://www.w3.org/2000/svg" viewBox="0 0 192 192">
  <defs>
    <linearGradient id="bg" x1="0%" y1="0%" x2="100%" y2="100%">
      <stop offset="0%" style="stop-color:#667eea"/>
      <stop offset="100%" style="stop-color:#764ba2"/>
    </linearGradient>
    <linearGradient id="accent" x1="0%" y1="0%" x2="100%" y2="100%">
      <stop offset="0%" style="stop-color:#f093fb"/>
      <stop offset="100%" style="stop-color:#f5576c"/>
    </linearGradient>
  </defs>
  
  <!-- 배경 -->
  <rect width="192" height="192" rx="40" fill="url(#bg)"/>
  
  <!-- 장식 원들 -->
  <circle cx="30" cy="30" r="20" fill="rgba(255,255,255,0.1)"/>
  <circle cx="170" cy="160" r="25" fill="rgba(255,255,255,0.08)"/>
  
  <!-- 물음표 박스 -->
  <rect x="46" y="46" width="100" height="100" rx="20" fill="white"/>
  
  <!-- 물음표 -->
  <text x="96" y="125" 
        font-family="Arial, sans-serif" 
        font-size="70" 
        font-weight="bold" 
        fill="url(#bg)" 
        text-anchor="middle">?</text>
  
  <!-- 스타 장식 -->
  <polygon points="160,35 163,44 172,44 165,50 168,60 160,54 152,60 155,50 148,44 157,44" 
           fill="url(#accent)"/>
  <polygon points="40,150 42,156 48,156 43,160 45,166 40,162 35,166 37,160 32,156 38,156" 
           fill="#ffd93d"/>
</svg>
